<?xml version="1.0" encoding="utf-8"?>
<!-- Generator: Adobe Illustrator 23.0.2, SVG Export Plug-In . SVG Version: 6.00 Build 0)  -->
<svg version="1.1" id="Capa_1" xmlns="http://www.w3.org/2000/svg" xmlns:xlink="http://www.w3.org/1999/xlink" x="0px" y="0px"
	 viewBox="0 0 512.2 512.2" style="enable-background:new 0 0 512.2 512.2;" xml:space="preserve">
<style type="text/css">
	.st0{fill:#191919;}
	.st1{fill:#2A712F;}
</style>
<g>
	<g>
		<path class="st0" d="M470,247.6c13.3-72.4-8.4-172-87.7-219.4C332.2,0.1,273.1-7.4,217.6,7.5C140.7,28,84.2,83.2,66.4,155
			c-4,14.6-5.6,29.7-5,44.8c0.9,9.4,2.6,18.6,5.2,27.7c3.5,11.5,5.2,23.5,5.1,35.5c-0.4,14.3-10.2,29.1-18.9,42.2
			c-9.5,14.3-17.7,26.6-12.9,38c4.5,7.7,12.4,12.8,21.3,13.7c0.5,0.1,1,0.1,1.5,0.2c2.4-0.3,4.8,0.5,6.5,2.1s2.6,4,2.5,6.4
			c0,17.7,0.4,26.9,7.8,31.1c-0.6,1.3-1.1,2.8-1.3,4.2c-0.7,5,1.1,10,4.8,13.5c3.7,3.6,8.4,6,13.5,6.9c0.4,0.1,0.7,0.1,1,0.2
			c0.2,1.3,0.3,2.6,0.3,3.8c-0.1,3.2-0.3,6.3-0.7,9.5c-1.4,13.6-3.4,32.3,24,41.3c5.5,1.5,11.2,2.2,16.9,2
			c25.9-1.1,51.4-6,75.9-14.5c7.1,12.3,11.3,26,12.5,40.2c0,2.3,0.9,4.4,2.5,6c1.6,1.6,3.8,2.5,6,2.5h213.3c3.6,0,6.9-2.4,8-5.9
			c1.1-3.5-0.1-7.4-3-9.6c-8.8-6.7-38.1-77.3-39-102.7c2.6-5.9,6-12.4,10.1-20.1C446.5,334.7,461.9,292,470,247.6z M397,393.1
			c0.2,20.4,18.6,74.3,34.4,102H242.6c-2.1-13.1-6.4-25.7-12.5-37.4c24.7-9.7,46.5-22.1,57-35.8c2.8-3.7,2.1-9.1-1.6-11.9
			c-3.7-2.9-9.1-2.1-12,1.6c-24.1,31.6-124.6,55.6-147.1,48.3c-14.2-4.6-13.6-10.1-12.3-23.3c0.5-3.7,0.7-7.5,0.8-11.3
			c0-14.4-5.8-18.7-14.5-20.7c-1.6-0.2-3.2-0.8-4.6-1.8c1.7-1.6,3.6-2.9,5.6-4c3.6-1.8,5.4-5.7,4.6-9.6s-4.3-6.6-8.3-6.6
			c-3.1,0-6.5,0-8.3-0.2c-0.5-5.6-0.7-11.2-0.6-16.8c0.2-6.7-2.4-13.2-7.1-18.1s-11.2-7.5-17.9-7.5c-6.2-1.3-8-3-8.2-3.4
			c-1.2-3,7-15.3,11.4-22c9.5-14.3,21.3-32,21.8-51.2c0.2-10.7-0.9-21.3-3.5-31.7c9.3-8.2,20.3-14.2,32.2-17.7
			c4.2-0.7,8.6-0.4,12.7,0.9c4.5,1.3,9.2-1.4,10.5-6c1.3-4.5-1.4-9.2-6-10.5c-6.7-2.1-13.8-2.5-20.8-1.1
			c-12.1,3.1-23.3,8.7-33.1,16.4c-1.2-5-2-10-2.4-15.1c-0.6-13.3,0.9-26.6,4.5-39.4C99.5,92.4,150.2,43.1,222,23.9
			c51-13.7,105.4-6.9,151.5,18.9c72.3,43.3,92,134.9,79.7,201.7c-7.7,42.7-22.6,83.7-44,121.3c-4.7,8.8-8.7,16.3-11.7,23.3
			C397,390.4,396.8,391.7,397,393.1z"/>
		<path class="st1" d="M413.9,267.1c1.2-13.2-7.8-25.1-20.8-27.5l-16.3-22.7c1-1.8,1.8-3.8,2.3-5.9l15.8-6.3
			c7.3,8.3,19.1,11,29.3,6.6c10.2-4.4,16.3-14.8,15.3-25.9s-9.1-20.1-19.9-22.5l-12.8-25.6c9-9.2,9.8-23.6,1.8-33.7
			c-8-10.1-22.2-12.7-33.2-6l-14.3-11.9c1.1-2.8,1.6-5.8,1.7-8.9c0-10.5-6.3-19.9-16-23.8c-9.7-3.9-20.8-1.5-28,6.1L293.5,53
			c-3-11-13-18.6-24.4-18.7s-21.4,7.4-24.6,18.4l-33.8,6.8c-8.8-9.5-23.4-10.9-33.8-3.2c-10.4,7.7-13.4,22-6.9,33.2l-16.6,22.1
			c-11.9,2.1-20.6,12.3-21,24.4s7.8,22.7,19.5,25.6l13.7,33.8c-7.5,7.4-9.7,18.6-5.6,28.3c4.1,9.7,13.8,15.8,24.3,15.5
			s19.8-7.1,23.3-17.1h45.8c3.8,11.8,15.8,18.9,27.9,16.7l28.3,43.1c-7.3,8.1-8.6,19.8-3.4,29.4c5.2,9.5,15.9,14.7,26.6,12.9
			s19.1-10.1,21-20.8l21.1-16.9c4,2.5,8.7,3.9,13.4,3.9C401.6,290.3,412.7,280.2,413.9,267.1z M414,179.4c4.3,0,7.9,3.1,8.5,7.4
			c0.6,4.2-2,8.2-6.2,9.4s-8.4-0.9-10.1-4.8c0-0.1,0-0.2,0-0.2l-0.1-0.1c-0.4-1-0.6-2-0.6-3.1C405.5,183.2,409.3,179.4,414,179.4z
			 M380,117.9c0.8-4,4.3-6.8,8.4-6.8c4.7,0,8.5,3.8,8.5,8.5s-3.8,8.5-8.5,8.5c-1.1,0-2.1-0.2-3.1-0.6l-0.1,0c-0.1,0-0.2,0-0.2,0
			C381.3,125.8,379.2,121.9,380,117.9z M371.6,138.8L371.6,138.8l-15.8,39.4l-27.6-22.1c3.8-3.2,6.5-7.4,7.9-12.1l33.8-6.8
			C370.4,137.7,371,138.2,371.6,138.8z M362.5,207.3c-1.1,4.1-5.2,6.7-9.4,6.1c-4.2-0.6-7.4-4.2-7.4-8.5c0-4.7,3.8-8.5,8.5-8.5
			c1.1,0,2.1,0.2,3.1,0.6l0.1,0c0.1,0,0.2,0,0.2,0C361.6,198.8,363.6,203.2,362.5,207.3z M337.2,68.4c4.7,0,8.5,3.8,8.5,8.5
			s-3.8,8.5-8.5,8.5s-8.5-3.8-8.5-8.5C328.7,72.2,332.5,68.4,337.2,68.4z M292.3,70.3l19.5,4.9c0,0.6-0.2,1.2-0.2,1.8
			c0,14.1,11.5,25.6,25.6,25.6c4.6,0,9.1-1.3,13-3.7l14.3,11.9c-1.1,2.8-1.6,5.8-1.7,8.9c0,0.5,0.1,1,0.2,1.5l-27.8,5.6
			c-3.5-8.1-10.9-13.9-19.6-15.2l-31.2-31.2C287.8,77.6,290.5,74.2,292.3,70.3z M320.1,136.7c0,4.7-3.8,8.5-8.5,8.5
			c-4.7,0-8.5-3.8-8.5-8.5c0-4.7,3.8-8.5,8.5-8.5S320.1,132,320.1,136.7z M268.9,51.4c4.7,0,8.5,3.8,8.5,8.5s-3.8,8.5-8.5,8.5
			s-8.5-3.8-8.5-8.5C260.4,55.2,264.2,51.4,268.9,51.4z M270.6,90.7l25.6,25.6c-4,3-7,7.1-8.7,11.8h-20.2c-2-5.7-6-10.4-11.1-13.5
			L270.6,90.7z M217.6,75.4l27.8-5.6c2.2,5,5.9,9.2,10.7,12l-15.5,25.8l-26.8-17.2c2.6-4.1,4-8.8,4-13.6
			C217.7,76.4,217.6,76,217.6,75.4z M251.9,136.7c0,4.7-3.8,8.5-8.5,8.5c-4.7,0-8.5-3.8-8.5-8.5c0-4.7,3.8-8.5,8.5-8.5
			S251.9,132,251.9,136.7z M192.1,68.4c4.7,0,8.5,3.8,8.5,8.5s-3.8,8.5-8.5,8.5s-8.5-3.8-8.5-8.5C183.6,72.2,187.4,68.4,192.1,68.4z
			 M182.8,100.8c5.2,2.1,11,2.4,16.3,0.7l26.3,16.9c-2.8,2.7-4.9,6.1-6.2,9.8H182c-1.9-5.3-5.4-9.8-10.1-12.9L182.8,100.8z
			 M158,145.2c-4.7,0-8.5-3.8-8.5-8.5c0-4.7,3.8-8.5,8.5-8.5c4.7,0,8.5,3.8,8.5,8.5S162.7,145.2,158,145.2z M183.6,222
			c-4.7,0-8.5-3.8-8.5-8.5c0-4.7,3.8-8.5,8.5-8.5s8.5,3.8,8.5,8.5C192.1,218.2,188.3,222,183.6,222z M188.5,188.4
			c-1.6-0.3-3.2-0.5-4.9-0.5c-0.8,0-1.6,0.2-2.5,0.3l-11.6-28.7c5.8-3,10.3-8,12.5-14.2h37.3c1.5,4.3,4.2,8.1,7.7,11L188.5,188.4z
			 M253.4,205h-45.8c-0.9-2.6-2.2-4.9-3.9-7.1l41.9-34.9l14.3,32C257,197.7,254.8,201.2,253.4,205z M267.4,145.2h20.2
			c2,5.6,6,10.4,11.1,13.5L281,188.2c-1.2-0.2-2.3-0.3-3.5-0.4c-0.7,0-1.3,0.1-1.9,0.2l-14.6-32.9C263.8,152.5,266,149,267.4,145.2z
			 M277.5,222c-4.7,0-8.5-3.8-8.5-8.5c0-4.7,3.8-8.5,8.5-8.5c4.7,0,8.5,3.8,8.5,8.5C286,218.2,282.2,222,277.5,222z M313.9,166.5
			l23.8,19.1c-3.7,3.2-6.5,7.4-7.9,12.1l-28.8,5.8c-1.2-2.7-2.8-5.2-4.9-7.4L313.9,166.5z M328.7,307.4c-4.7,0-8.5-3.8-8.5-8.5
			s3.8-8.5,8.5-8.5s8.5,3.8,8.5,8.5C337.2,303.5,333.4,307.4,328.7,307.4z M362.8,264.7c0,2.9,0.5,5.7,1.5,8.4l-14.4,11.5
			c-5.4-8.4-15.3-12.7-25.1-10.9l-28.3-43.1c2.5-2.8,4.4-6.2,5.5-9.8l28.8-5.8c5.5,13,20.4,19.1,33.4,13.6l10.5,14.6
			C367.3,247.8,362.8,256,362.8,264.7z M371.1,185.8l16.3-40.7c0.3,0,0.7,0.1,1,0.1c1,0,2.1-0.1,3.1-0.3l10.3,20.6
			c-8.2,4.4-13.4,13-13.4,22.4c0,0.3,0.1,0.7,0.1,1l-11.5,4.6C375.6,190.6,373.6,188,371.1,185.8z M388.4,273.2
			c-4.7,0-8.5-3.8-8.5-8.5c0-4.7,3.8-8.5,8.5-8.5c4.7,0,8.5,3.8,8.5,8.5S393.1,273.2,388.4,273.2z"/>
	</g>
</g>
</svg>
