<?xml version="1.0" encoding="utf-8"?>
<!-- Generator: Adobe Illustrator 23.0.2, SVG Export Plug-In . SVG Version: 6.00 Build 0)  -->
<svg version="1.1" id="Capa_1" xmlns="http://www.w3.org/2000/svg" xmlns:xlink="http://www.w3.org/1999/xlink" x="0px" y="0px"
	 viewBox="0 0 512 512" style="enable-background:new 0 0 512 512;" xml:space="preserve">
<style type="text/css">
	.st0{fill:#2A712F;}
	.st1{fill:#191919;}
</style>
<path class="st0" d="M368.8,429.5l-41.1-24.9l-0.2-0.1l-22.5-13.6v-15c8.1-11,13.8-23.5,16.8-36.8c0.5-2.5,1.6-4.8,3.4-6.6
	c0.1-0.1,0.2-0.2,0.3-0.3c5.9-6.1,9.2-14.2,9.1-22.6v-21.2c0-5-1.2-10-3.4-14.5l-1.2-2.5c-0.9-1.7-1.3-3.7-1.3-5.6v-30.5
	c0.1-31.8-25.6-57.7-57.4-57.8h-35.5c-31.8,0.2-57.5,26-57.4,57.8v30.5c0,1.9-0.4,3.9-1.3,5.6l-1.2,2.5c-2.2,4.5-3.4,9.5-3.4,14.5
	v21.2c0,8.4,3.2,16.6,9.1,22.6c0.1,0.1,0.2,0.2,0.3,0.3c1.8,1.8,2.9,4.1,3.4,6.6c3,13.3,8.7,25.8,16.8,36.8v15l-23.2,14
	c-0.1,0.1-0.2,0.1-0.4,0.2l-40.4,24.4c-15.5,9.5-24.9,26.3-24.9,44.4v24.1c0,2.7,1.1,5.2,2.9,7.1c1.9,1.9,4.4,2.9,7.1,2.9h260.6
	c2.7,0,5.2-1.1,7.1-2.9c1.9-1.9,2.9-4.4,2.9-7.1V474C393.7,455.8,384.2,439,368.8,429.5z M196.3,318.7c-0.1-0.1-0.2-0.2-0.3-0.3
	c-2.3-2.4-3.6-5.5-3.6-8.8v-21.2c0-1.9,0.4-3.9,1.3-5.6l1.2-2.5c2.2-4.5,3.4-9.5,3.4-14.5v-30.5c-0.1-20.7,16.6-37.6,37.4-37.8h35.5
	c20.7,0.1,37.5,17,37.4,37.8v30.5c0,5,1.2,10,3.4,14.5l1.2,2.5c0.9,1.7,1.3,3.6,1.3,5.6v21.2c0,3.3-1.3,6.5-3.6,8.8l-0.3,0.3
	c-4.4,4.6-7.3,10.3-8.6,16.5l0,0c-2.6,10.9-7.4,21.2-14.2,30.1c-1.9,2.7-3,5.9-3,9.3v16.2l-32,14.4L222,390.8v-16.3
	c0-3.3-1.1-6.6-3-9.3c-6.8-8.9-11.6-19.2-14.1-30.1C203.6,328.9,200.7,323.2,196.3,318.7z M263,439.7l-5.5,8.3h-9.3l-5.5-8.3
	l10.2-9.7L263,439.7z M216.6,488.1h-83.4V474c0-11.1,5.8-21.5,15.3-27.3l34.3-20.8l19.8,15.5c5.4,4.3,12.1,6.6,19,6.6
	c0.8,0,1.6-0.1,2.4-0.2l7.3,10.9L216.6,488.1z M228.8,425.2c-1,1-2.3,1.7-3.7,2.1c-3.4,1.3-7.3,0.7-10.2-1.6l-13.8-10.9l10.8-6.6
	l23.3,10.8L228.8,425.2z M239,488.1l10-20h7.7l10,20H239z M294.9,408.2l10.2,6.2l-14.4,11.3c-3.1,2.3-7.1,2.8-10.7,1.4
	c-1.2-0.4-2.3-1-3.2-1.9l-6.3-6L294.9,408.2z M373.7,488.1h-84.6l-14.7-29.3l7.3-11c0.8,0.1,1.6,0.2,2.4,0.2
	c6.9,0,13.5-2.3,18.9-6.5l20.3-15.9l35,21.2c9.5,5.8,15.3,16.2,15.3,27.3L373.7,488.1L373.7,488.1z"/>
<path class="st0" d="M253.4,131.8c36.2,0,65.6-29.4,65.6-65.6c0-36.2-29.4-65.6-65.6-65.6c-36.2,0-65.6,29.4-65.6,65.6
	S217.2,131.8,253.4,131.8z M253.4,12.5c29.7,0,53.7,24,53.7,53.7c0,29.6-24.1,53.7-53.7,53.7c-29.7,0-53.7-24-53.7-53.7
	C199.7,36.5,223.8,12.5,253.4,12.5z"/>
<path class="st0" d="M472.6,197.4c0-36.2-29.4-65.6-65.6-65.6c-36.2,0-65.6,29.4-65.6,65.6c0,36.2,29.4,65.6,65.6,65.6
	C443.2,263,472.6,233.7,472.6,197.4z M406.9,251.1c-29.7,0-53.7-24-53.7-53.7c0-29.6,24.1-53.7,53.7-53.7c29.7,0,53.7,24,53.7,53.7
	S436.6,251.1,406.9,251.1z"/>
<path class="st0" d="M101.9,121.3c-34.1,0-61.8,27.7-61.8,61.8s27.7,61.8,61.8,61.8s61.8-27.7,61.8-61.8
	C163.6,148.9,136,121.3,101.9,121.3z M101.9,233.6c-27.9,0-50.5-22.6-50.5-50.5s22.6-50.5,50.5-50.5s50.5,22.6,50.5,50.5
	C152.4,210.9,129.8,233.6,101.9,233.6z"/>
<path class="st1" d="M406.9,191.4c-3.3,0-6-2.7-6-6c0-3.3,2.7-6,6-6h11.9c3.3,0,6-2.7,6-6s-2.7-6-6-6h-6v-6c0-3.3-2.7-6-6-6
	c-3.3,0-6,2.7-6,6v7.1c-8.2,2.9-13.1,11.3-11.7,19.9c1.5,8.6,8.9,14.8,17.6,14.8c3.3,0,6,2.7,6,6s-2.7,6-6,6H395c-3.3,0-6,2.7-6,6
	s2.7,6,6,6h6v6c0,3.3,2.7,6,6,6c3.3,0,6-2.7,6-6v-7.1c8.2-2.9,13.1-11.3,11.7-19.9C423.1,197.7,415.7,191.4,406.9,191.4z"/>
<path class="st1" d="M135.2,164.3c0-0.1-0.1-0.3-0.1-0.4c0,0,0-0.1,0-0.1c-0.3-0.5-0.6-1-1-1.5c-0.1-0.1-0.3-0.2-0.4-0.3
	c-1-0.9-2.3-1.4-3.7-1.4h-11.2c-3,0-5.4,2.3-5.6,5.3c-0.2,3,1.9,5.6,4.9,5.9l-15.9,19.1L89.5,174c-1.1-1.4-2.8-2.3-4.6-2.2
	c-1.8,0.1-3.5,1-4.5,2.5l-11.2,16.8c-1.1,1.7-1.3,3.8-0.4,5.6c0.9,1.8,2.7,3,4.7,3.1c2,0.1,3.9-0.8,5-2.5l6.8-10.2l12.1,16.1
	c1,1.4,2.6,2.2,4.3,2.2h0.1c1.7,0,3.2-0.7,4.3-2l19.2-23c1,1.6,2.7,2.5,4.6,2.6c1.5,0,2.9-0.6,4-1.6c1.1-1.1,1.6-2.5,1.6-4v-11.2
	c0-0.1-0.1-0.2-0.1-0.3C135.5,165.4,135.4,164.8,135.2,164.3z"/>
<path class="st1" d="M272.6,95h-38.4c-5.3,0-9.6-4.3-9.6-9.6v-24c0-5.3,4.3-9.6,9.6-9.6h38.4c5.3,0,9.6,4.3,9.6,9.6v24
	C282.2,90.7,277.9,95,272.6,95z M272.6,85.4v4.8V85.4z M234.2,61.4v24h38.4l0-24H234.2z"/>
<path class="st1" d="M243.8,61.4c-2.7,0-4.8-2.1-4.8-4.8V42.2c0-2.7,2.1-4.8,4.8-4.8s4.8,2.1,4.8,4.8v14.4
	C248.6,59.2,246.5,61.4,243.8,61.4z"/>
<path class="st1" d="M263,47h-19.2c-2.7,0-4.8-2.1-4.8-4.8s2.1-4.8,4.8-4.8H263c2.7,0,4.8,2.1,4.8,4.8S265.7,47,263,47z"/>
<path class="st1" d="M263,61.4c-2.7,0-4.8-2.1-4.8-4.8V42.2c0-2.7,2.1-4.8,4.8-4.8c2.7,0,4.8,2.1,4.8,4.8v14.4
	C267.8,59.2,265.7,61.4,263,61.4z"/>
</svg>
