<?xml version="1.0" encoding="utf-8"?>
<!-- Generator: Adobe Illustrator 23.0.2, SVG Export Plug-In . SVG Version: 6.00 Build 0)  -->
<svg version="1.1" id="Layer_1" xmlns="http://www.w3.org/2000/svg" xmlns:xlink="http://www.w3.org/1999/xlink" x="0px" y="0px"
	 viewBox="0 0 286 157" style="enable-background:new 0 0 286 157;" xml:space="preserve">
<style type="text/css">
	.st0{fill:#2A712F;}
</style>
<path class="st0" d="M0,157V0h34.6v61.1h61.6V0h34.6v157H96.1V90H34.6v67H0z"/>
<path class="st0" d="M163.1,157V0h59c8.7-0.1,17.4,0.8,25.8,2.7c7,1.5,13.6,4.4,19.4,8.6c5.3,3.9,9.5,9.1,12.2,15.1
	c3,6.9,4.4,14.4,4.2,22c0,12.7-2.8,22.6-8.4,29.8c-6.3,7.6-14.7,13.1-24.2,15.8L286,157h-36.4l-32.8-58.5h-20V157H163.1z
	 M196.8,71.2h23.6c10,0,17.5-1.6,22.3-4.9c4.8-3.3,7.2-8.9,7.2-17s-2.4-13.4-7.2-16.6S230.6,28,220.5,28h-23.6V71.2z"/>
</svg>
