<?xml version="1.0" encoding="utf-8"?>
<!-- Generator: Adobe Illustrator 23.0.2, SVG Export Plug-In . SVG Version: 6.00 Build 0)  -->
<svg version="1.1" id="Capa_1" xmlns="http://www.w3.org/2000/svg" xmlns:xlink="http://www.w3.org/1999/xlink" x="0px" y="0px"
	 viewBox="0 0 512 512" style="enable-background:new 0 0 512 512;" xml:space="preserve">
<style type="text/css">
	.st0{fill:#191919;}
	.st1{fill:#2A712F;}
</style>
<g>
	<g>
		<path class="st0" d="M130.1,377c-5.5,0-10,4.5-10,10v48.4c3.5,0,7,0,10.4,0c1.7,0,3.5,0,5.2,0c0.8,0,1.6,0.1,2.4,0
			c0.7,0,1.3-0.2,1.9-0.3V387C140.1,381.5,135.6,377,130.1,377z"/>
		<path class="st1" d="M482,356h-32V93.2h3.3c3.6,0,7-2,8.7-5.2c1.8-3.2,1.7-7.1-0.3-10.2l-33.3-53.2c-1.8-2.9-5-4.7-8.5-4.7
			s-6.6,1.8-8.5,4.7l-33.3,53.2c-1.9,3.1-2,7-0.3,10.2c1.8,3.2,5.1,5.2,8.7,5.2h3.3V287c0,5.5,4.5,10,10,10s10-4.5,10-10V83.2
			c0-4-2.4-7.5-5.8-9.1L420,48.9l15.8,25.2c-3.4,1.6-5.8,5.1-5.8,9.1V356h-72c-16.5,0-30,13.5-30,30v3.7c-3.1-1.1-6.5-1.7-10-1.7
			h-44.9v-0.8h-20v0.8h-24v-0.6h-20v0.6H194c-0.6,0-1.2,0-1.8,0.1c0,0.1,0,0.3-0.2,0.3h-2.8c-1.8,0.3-3.5,0.7-5.2,1.3v-1.3h-20V436
			h-23.9v-0.3c-0.7,0.1-1.4,0.3-2.1,0.3c-0.7,0-1.5,0-2.2,0c-1.7,0-3.5,0-5.2,0c-3.5,0-7,0-10.4,0v0.1H30c-16.5,0-30,13.5-30,30v36
			c0,5.5,4.5,10,10,10h492c5.5,0,10-4.5,10-10V386C512,369.5,498.5,356,482,356z M164,492H20v-26c0-5.5,4.5-10,10-10h124
			c5.5,0,10,4.5,10,10V492z M328,492H184v-74c0-5.5,4.5-10,10-10h124c5.5,0,10,4.5,10,10V492z M492,492H348V386c0-5.5,4.5-10,10-10
			h124c5.5,0,10,4.5,10,10V492z"/>
		<path class="st0" d="M120.1,248.9v56.6c0,5.5,4.5,10,10,10s10-4.5,10-10v-57.7h83c16.5,0,30,13.5,30,30v108.9h20V277.8
			c0-27.6-22.4-50-50-50h-11.8v-12.2c4.2,1.9,8.9,2.9,13.8,2.9h51.9c16.3,0,29.6-13.3,29.6-29.6s-13.3-29.6-29.6-29.6h-25.7v-11.3
			c0-30.2-20.5-55.8-48.3-63.6c6.3-7.9,10.1-18,10.1-28.9v-9.1C213,20.9,192.2,0,166.6,0s-46.5,20.9-46.5,46.5v9.1
			c0,10.7,3.7,20.6,9.8,28.5c-28.6,7.2-49.8,33.2-49.8,64v51.8C80.1,224.1,97.3,244.2,120.1,248.9z M140.1,46.5
			c0-14.6,11.9-26.5,26.5-26.5c14.6,0,26.5,11.9,26.5,26.5v9.1c0,14.6-11.9,26.5-26.5,26.5c-14.6,0-26.5-11.9-26.5-26.5V46.5z
			 M100.1,148.1c0-25.4,20.6-46,46-46h39.1c25.4,0,46,20.6,46,46v21.3c0,5.5,4.5,10,10,10h35.7c5.3,0,9.6,4.3,9.6,9.6
			s-4.3,9.6-9.6,9.6H225c-7.6,0-13.8-6.2-13.8-13.8v-26.6c0-5.5-4.5-10-10-10s-10,4.5-10,10v69.6h-51.2v-69.6c0-5.5-4.5-10-10-10
			s-10,4.5-10,10v69.9c-11.6-4.1-20-15.2-20-28.2V148.1z"/>
		<path class="st0" d="M219.1,279.9H174c-5.5,0-10,4.5-10,10v98h20v-88h25.1v87h20v-97C229.1,284.4,224.6,279.9,219.1,279.9z"/>
	</g>
</g>
<g>
	<g>
		<path class="st0" d="M137.1,337.3c-1.9-1.9-4.4-2.9-7.1-2.9s-5.2,1.1-7.1,2.9c-1.9,1.9-2.9,4.4-2.9,7.1s1.1,5.2,2.9,7.1
			c1.9,1.9,4.4,2.9,7.1,2.9c2.6,0,5.2-1.1,7.1-2.9s2.9-4.4,2.9-7.1S139,339.2,137.1,337.3z"/>
	</g>
</g>
<g>
	<g>
		<path class="st1" d="M407.1,317.9c-1.9-1.9-4.4-2.9-7.1-2.9s-5.2,1.1-7.1,2.9c-1.9,1.9-2.9,4.4-2.9,7.1s1.1,5.2,2.9,7.1
			c1.9,1.9,4.4,2.9,7.1,2.9s5.2-1.1,7.1-2.9c1.9-1.9,2.9-4.4,2.9-7.1S408.9,319.8,407.1,317.9z"/>
	</g>
</g>
</svg>
