<?xml version="1.0" encoding="utf-8"?>
<!-- Generator: Adobe Illustrator 23.0.2, SVG Export Plug-In . SVG Version: 6.00 Build 0)  -->
<svg version="1.1" id="Capa_1" xmlns="http://www.w3.org/2000/svg" xmlns:xlink="http://www.w3.org/1999/xlink" x="0px" y="0px"
	 viewBox="0 0 480 480" style="enable-background:new 0 0 480 480;" xml:space="preserve">
<style type="text/css">
	.st0{fill:#191919;}
	.st1{fill:#2A712F;}
</style>
<g>
	<g>
		<path class="st0" d="M429.7,90.3l-40-40c-2.7-2.7-6.9-3.1-10-1l-44.4,29.1l-47.9-20l-7.4-51.5C279.4,2.9,276,0,272,0h-64
			c-4,0-7.4,2.9-7.9,6.9l-7.4,51.5l-47.9,20l-44.5-29.1c-3.2-2.1-7.4-1.6-10,1l-40,40c-2.7,2.7-3.1,6.9-1,10.1l29.6,45l-5,11.5
			l14.7,6.4l6.7-15.4c1.1-2.5,0.8-5.3-0.7-7.6L66.2,97L97,66.2l42.6,27.9c2.2,1.4,5,1.7,7.5,0.7l56-23.4c2.6-1.1,4.4-3.5,4.8-6.2
			l7-49.1h50.1l7,49.1c0.4,2.8,2.2,5.2,4.8,6.2l56,23.4c2.5,1,5.2,0.8,7.5-0.7l42.6-27.9l31,31l-20.8,35.2c-1.2,2.1-1.5,4.6-0.6,6.9
			l8.9,23.4l15-5.7l-7.5-19.8l22-37.3C432.8,96.9,432.3,92.9,429.7,90.3z"/>
	</g>
</g>
<g>
	<g>
		<path class="st1" d="M325.7,306.3l-24-24c-1.5-1.5-3.5-2.3-5.7-2.3H184c-2.1,0-4.2,0.8-5.7,2.3l-24,24c-1.5,1.5-2.3,3.5-2.3,5.7
			v160c0,4.4,3.6,8,8,8h160c4.4,0,8-3.6,8-8V312C328,309.9,327.2,307.8,325.7,306.3z M267.3,296h25.4L264,324.7L251.3,312L267.3,296
			z M252.7,336l-10.3,10.3c-1.5,1.5-2.3,3.5-2.3,5.7c0-2.1-0.9-4.1-2.3-5.6L227.3,336l12.7-12.7L252.7,336z M244.7,296l-4.7,4.7
			l-4.7-4.7H244.7z M212.7,296l16,16L216,324.7L187.3,296H212.7z M209,464h-41V315.3l8-8l34.3,34.3l13.2,13.2L209,464z M225.1,464
			l14.8-110.9c0-0.3,0.1-0.7,0.1-1c0,0.5,0.1,1,0.2,1.5L262.2,464H225.1z M312,464h-33.4l-21.9-109.4l13-13l34.3-34.3l8,8V464z"/>
	</g>
</g>
<g>
	<g>
		<path class="st1" d="M296,104h-72c-26.5,0-48,21.5-48,48v48c0,35.3,28.7,64,64,64c35.3,0,64-28.7,64-64v-88
			C304,107.6,300.4,104,296,104z M288,200c0,26.5-21.5,48-48,48s-48-21.5-48-48v-32h64c11.8,0,23.2-4.4,32-12.3V200z M256,152h-64
			c0-17.7,14.3-32,32-32h64C288,137.7,273.7,152,256,152z"/>
	</g>
</g>
<g>
	<g>
		<path class="st1" d="M477.7,338.3l-24-24c-1.5-1.5-3.5-2.3-5.7-2.3h-64c-2.1,0-4.2,0.8-5.7,2.3l-24,24c-1.5,1.5-2.3,3.5-2.3,5.7
			v128c0,4.4,3.6,8,8,8h112c4.4,0,8-3.6,8-8V344C480,341.9,479.2,339.8,477.7,338.3z M464,464h-40V344h-16v120h-40V347.3l16-16
			l18.3,18.3l5.7-5.7l5.7-5.7L403.3,328h26l-10.8,10.2l5.5,5.8l5.5,5.8l19.1-18l15.4,15.4V464z"/>
	</g>
</g>
<g>
	<g>
		<path class="st1" d="M424,176h-15.7c-22,0-39.9,17.8-40,39.9l-0.1,40.1c-0.1,26.5,21.3,48,47.8,48.1c0.1,0,0.1,0,0.2,0
			c26.5,0,47.9-21.5,47.9-47.9V216C464,193.9,446.1,176,424,176z M384.3,215.9c0-13.1,10.6-23.8,23.7-23.9
			C408,205.2,397.4,215.9,384.3,215.9L384.3,215.9z M448,256.1c0,17.6-14.3,31.9-31.9,31.9c-17.6,0-31.9-14.3-31.9-31.9
			c0,0,0-0.1,0-0.1l0.1-24c12.5-0.1,24.3-6,31.8-16c7.6,10.1,19.4,16,32,16L448,256.1L448,256.1z M424,192c13.3,0,24,10.7,24,24
			C434.7,216,424,205.3,424,192z"/>
	</g>
</g>
<g>
	<g>
		<path class="st1" d="M125.7,338.3l-24-24c-1.5-1.5-3.5-2.3-5.7-2.3H32c-2.1,0-4.2,0.8-5.7,2.3l-24,24C0.8,339.8,0,341.9,0,344v128
			c0,4.4,3.6,8,8,8h112c4.4,0,8-3.6,8-8V344C128,341.9,127.2,339.8,125.7,338.3z M112,464H72V344H56v120H16V347.3l16-16l18.3,18.3
			L56,344l5.7-5.7L51.3,328h26l-10.8,10.2L72,344l5.5,5.8l19.1-18l15.4,15.4V464z"/>
	</g>
</g>
<g>
	<g>
		<path class="st1" d="M72,176H56.3c-22,0-39.9,17.8-40,39.9l-0.1,40.1c-0.1,26.5,21.3,48,47.8,48.1c0.1,0,0.1,0,0.2,0
			c26.5,0,47.9-21.5,47.9-47.9V216C112,193.9,94.1,176,72,176z M72,192c10.1,0,19.2,6.4,22.5,16H80c-10.1,0-19.2-6.4-22.5-16H72z
			 M40,198.5v1.5c0,2.1-0.8,4.2-2.4,5.7c-1,1-2.3,1.7-3.8,2C35.2,204.1,37.3,201,40,198.5z M96,256.1c0,17.6-14.3,31.9-31.9,31.9
			c-17.6,0-31.9-14.3-31.9-31.9c0,0,0-0.1,0-0.1l0.1-32.1c6.3,0,12.3-2.5,16.7-7c1.3-1.3,2.4-2.7,3.3-4.2C59.7,220,69.7,224,80,224
			h16V256.1z"/>
	</g>
</g>
</svg>
