<?xml version="1.0" encoding="utf-8"?>
<!-- Generator: Adobe Illustrator 23.0.2, SVG Export Plug-In . SVG Version: 6.00 Build 0)  -->
<svg version="1.1" id="Capa_1" xmlns="http://www.w3.org/2000/svg" xmlns:xlink="http://www.w3.org/1999/xlink" x="0px" y="0px"
	 viewBox="0 0 512 512" style="enable-background:new 0 0 512 512;" xml:space="preserve">
<style type="text/css">
	.st0{fill:#191919;}
	.st1{fill:#2A712F;}
</style>
<g>
	<g>
		<g>
			<path class="st0" d="M199.7,149.9c-3.4-3.9-9.5-4.4-13.5-1L120,204.5c-4,3.4-4.5,9.3-1.1,13.2c1.9,2.2,4.6,3.3,7.3,3.3
				c2.2,0,4.4-0.7,6.2-2.3l66.2-55.6C202.7,159.7,203.1,153.8,199.7,149.9z"/>
		</g>
	</g>
	<g>
		<g>
			<path class="st0" d="M314.2,145.8c-3.1,4.2-2.3,10.2,1.9,13.4l68.5,52.8c4.1,3.2,10,2.4,13.1-1.8c1.7-2.3,2.2-5.2,1.7-7.8
				c-0.5-2.1-1.7-4.1-3.5-5.6L327.3,144C323.2,140.8,317.3,141.6,314.2,145.8z"/>
		</g>
	</g>
	<g>
		<g>
			<path class="st0" d="M316.5,365.7c3.3,3.7,9.2,4.2,13.1,1l64.4-53.2c3.9-3.2,4.4-8.9,1-12.6c-1.8-2.1-4.4-3.1-7.1-3.1
				c-2.1,0-4.3,0.7-6,2.2l-64.4,53.2C313.6,356.3,313.2,361.9,316.5,365.7z"/>
		</g>
	</g>
	<g>
		<g>
			<path class="st0" d="M202.1,369.6c3.1-4.2,2.3-10.2-1.9-13.4l-68.5-52.8c-4.1-3.2-10-2.4-13.1,1.8c-1.7,2.3-2.2,5.2-1.7,7.8
				c0.5,2.1,1.7,4.1,3.5,5.6l68.5,52.8C193.1,374.6,199,373.8,202.1,369.6z"/>
		</g>
	</g>
	<g>
		<g>
			<path class="st0" d="M93.5,278.5h-39c-11.5,0-20.9,9.1-20.9,20.3v17.7c0,2.4,1.3,4.6,3.4,5.8c11.3,6.5,24.1,10,37,10
				s25.7-3.5,37-10c2.1-1.2,3.4-3.4,3.4-5.8v-17.7C114.3,287.6,105,278.5,93.5,278.5z M100.9,312.5c-16.7,8.3-37.1,8.3-53.8,0v-13.7
				c0-3.8,3.3-6.8,7.4-6.8h39c4.1,0,7.4,3.1,7.4,6.8L100.9,312.5L100.9,312.5z"/>
		</g>
	</g>
	<g>
		<g>
			<path class="st0" d="M256,70.4c-14.8,0-26.9,12.1-26.9,26.9s12.1,26.9,26.9,26.9s26.9-12.1,26.9-26.9S270.8,70.4,256,70.4z
				 M256,110.8c-7.4,0-13.5-6-13.5-13.5c0-7.4,6-13.5,13.5-13.5s13.5,6,13.5,13.5C269.4,104.8,263.4,110.8,256,110.8z"/>
		</g>
	</g>
	<g>
		<g>
			<path class="st0" d="M275.5,137.7h-39c-11.5,0-20.9,9.1-20.9,20.3v17.7c0,2.4,1.3,4.6,3.4,5.8c11.3,6.5,24.1,10,37,10
				s25.7-3.5,37-10c2.1-1.2,3.4-3.4,3.4-5.8V158C296.4,146.8,287,137.7,275.5,137.7z M282.9,171.7c-16.7,8.3-37.1,8.3-53.8,0V158
				c0-3.8,3.3-6.8,7.4-6.8h39c4.1,0,7.4,3.1,7.4,6.8L282.9,171.7L282.9,171.7z"/>
		</g>
	</g>
	<g>
		<g>
			<path class="st1" d="M74,184.3c-40.8,0-74,33.2-74,74s33.2,74,74,74s74-33.2,74-74C148,217.5,114.8,184.3,74,184.3z M74,318.9
				c-33.4,0-60.6-27.2-60.6-60.6s27.2-60.6,60.6-60.6s60.6,27.2,60.6,60.6C134.5,291.7,107.4,318.9,74,318.9z"/>
		</g>
	</g>
	<g>
		<g>
			<path class="st0" d="M74,211.2c-14.8,0-26.9,12.1-26.9,26.9S59.1,265,74,265c14.8,0,26.9-12.1,26.9-26.9S88.8,211.2,74,211.2z
				 M74,251.6c-7.4,0-13.5-6-13.5-13.5s6-13.5,13.5-13.5c7.4,0,13.5,6,13.5,13.5S81.4,251.6,74,251.6z"/>
		</g>
	</g>
	<g>
		<g>
			<path class="st0" d="M457.5,278.5h-39c-11.5,0-20.9,9.1-20.9,20.3v17.7c0,2.4,1.3,4.6,3.4,5.8c11.3,6.5,24.1,10,37,10
				s25.7-3.5,37-10c2.1-1.2,3.4-3.4,3.4-5.8v-17.7C478.4,287.6,469,278.5,457.5,278.5z M464.9,312.5c-16.7,8.3-37.1,8.3-53.8,0
				v-13.7c0-3.8,3.3-6.8,7.4-6.8h39c4.1,0,7.4,3.1,7.4,6.8L464.9,312.5L464.9,312.5z"/>
		</g>
	</g>
	<g>
		<g>
			<path class="st1" d="M438,184.3c-40.8,0-74,33.2-74,74s33.2,74,74,74s74-33.2,74-74C512,217.5,478.8,184.3,438,184.3z M438,318.9
				c-33.4,0-60.6-27.2-60.6-60.6s27.2-60.6,60.6-60.6s60.6,27.2,60.6,60.6C498.5,291.7,471.4,318.9,438,318.9z"/>
		</g>
	</g>
	<g>
		<g>
			<path class="st0" d="M438,211.2c-14.8,0-26.9,12.1-26.9,26.9S423.1,265,438,265c14.8,0,26.9-12.1,26.9-26.9
				S452.8,211.2,438,211.2z M438,251.6c-7.4,0-13.5-6-13.5-13.5s6-13.5,13.5-13.5c7.4,0,13.5,6,13.5,13.5S445.4,251.6,438,251.6z"/>
		</g>
	</g>
	<g>
		<g>
			<path class="st1" d="M256,43.5c-40.8,0-74,33.2-74,74s33.2,74,74,74s74-33.2,74-74C330,76.7,296.8,43.5,256,43.5z M256,178.1
				c-33.4,0-60.6-27.2-60.6-60.6S222.6,57,256,57s60.6,27.2,60.6,60.6C316.5,150.9,289.4,178.1,256,178.1z"/>
		</g>
	</g>
	<g>
		<g>
			<path class="st0" d="M260.7,347.4c-14.8,0-26.9,12.1-26.9,26.9c0,14.8,12.1,26.9,26.9,26.9c14.8,0,26.9-12.1,26.9-26.9
				S275.6,347.4,260.7,347.4z M260.7,387.7c-7.4,0-13.5-6-13.5-13.5c0-7.4,6-13.5,13.5-13.5s13.5,6,13.5,13.5
				C274.2,381.7,268.1,387.7,260.7,387.7z"/>
		</g>
	</g>
	<g>
		<g>
			<path class="st0" d="M280.2,414.7h-39c-11.5,0-20.9,9.1-20.9,20.3v17.7c0,2.4,1.3,4.6,3.4,5.8c11.3,6.5,24.1,10,37,10
				s25.7-3.5,37-10c2.1-1.2,3.4-3.4,3.4-5.8V435C301.1,423.8,291.7,414.7,280.2,414.7z M287.6,448.7c-16.7,8.3-37.1,8.3-53.8,0V435
				c0-3.8,3.3-6.8,7.4-6.8h39c4.1,0,7.4,3.1,7.4,6.8L287.6,448.7L287.6,448.7z"/>
		</g>
	</g>
	<g>
		<g>
			<path class="st1" d="M260.7,320.5c-40.8,0-74,33.2-74,74s33.2,74,74,74s74-33.2,74-74C334.7,353.7,301.5,320.5,260.7,320.5z
				 M260.7,455c-33.4,0-60.6-27.2-60.6-60.6s27.2-60.6,60.6-60.6s60.6,27.2,60.6,60.6C321.3,427.9,294.1,455,260.7,455z"/>
		</g>
	</g>
</g>
</svg>
